<svg width="552" height="478" viewBox="0 0 552 478" fill="none" xmlns="http://www.w3.org/2000/svg">
<path d="M540.973 282.99C530.244 312.262 513.313 341.657 491.214 368.395C487.319 373.113 483.256 377.753 479.038 382.3C468.904 393.225 457.866 403.585 446.012 413.17C440.956 417.261 435.757 421.199 430.408 424.983C422.655 430.475 414.608 435.63 406.275 440.407C401.7 443.03 397.044 445.537 392.304 447.918C388.642 449.765 384.929 451.535 381.162 453.223C359.445 462.996 336.147 470.169 311.556 474.026C308.48 474.51 305.383 474.94 302.273 475.316C299.809 475.616 297.331 475.881 294.844 476.107C292.673 476.311 290.496 476.482 288.301 476.633C283.683 476.95 279.027 477.146 274.333 477.213C263.022 477.396 251.489 476.86 239.748 475.556C232.997 474.809 226.179 473.809 219.3 472.536C211.23 471.042 203.377 469.295 195.745 467.298C190.585 465.956 185.521 464.503 180.562 462.944C174.633 461.091 168.854 459.079 163.211 456.93H163.203C149.143 451.581 135.987 445.364 123.742 438.433C110.023 430.688 97.4396 422.036 86.0252 412.709C82.1736 409.568 78.4584 406.35 74.8795 403.057C69.9739 398.559 65.3199 393.924 60.9116 389.187C14.7836 339.607 -4.05355 278.159 5.98997 228.673C26.4764 127.796 109.449 98.1707 180.562 106.156C203.929 108.779 226.012 115.462 244.179 125.008C255.519 130.968 266.745 135.165 277.837 137.953C282.915 139.241 287.965 140.23 292.99 140.952H292.997C296.674 141.488 300.343 141.887 303.989 142.15C308.686 142.505 313.363 142.647 318.003 142.611C319.806 142.596 321.605 142.557 323.408 142.49C367.011 140.9 407.932 124.557 444.831 118.5C503.376 108.892 580.719 174.558 540.973 282.99Z" fill="#4786D1"/>
<path d="M540.973 282.99C530.244 312.262 513.314 341.657 491.214 368.395C487.319 373.113 483.256 377.753 479.038 382.3C468.904 393.225 457.866 403.585 446.012 413.17C440.956 417.261 435.757 421.199 430.408 424.983C422.655 430.475 414.608 435.63 406.275 440.407C401.7 443.03 397.044 445.537 392.304 447.918C388.642 449.765 384.929 451.535 381.162 453.223C359.445 462.996 336.147 470.169 311.556 474.026C308.48 474.51 305.383 474.94 302.273 475.316C299.81 475.616 297.331 475.881 294.844 476.107C292.673 476.311 290.496 476.482 288.301 476.633C283.683 476.95 279.028 477.146 274.333 477.213C263.022 477.396 251.489 476.86 239.748 475.556C232.997 474.809 226.18 473.809 219.3 472.536C211.23 471.042 203.378 469.295 195.746 467.298C190.585 465.956 185.522 464.503 180.562 462.944V106.156C203.929 108.779 226.012 115.462 244.18 125.008C255.519 130.968 266.745 135.165 277.837 137.953C282.916 139.241 287.965 140.23 292.99 140.952H292.997C296.674 141.488 300.343 141.887 303.989 142.15C308.686 142.505 313.363 142.648 318.004 142.611C319.806 142.596 321.605 142.557 323.408 142.49C367.011 140.9 407.932 124.557 444.831 118.5C503.376 108.892 580.719 174.558 540.973 282.99Z" fill="#336DC1"/>
<path d="M311.556 395.182V474.025C308.48 474.509 305.383 474.939 302.272 475.316C299.809 475.617 297.33 475.88 294.844 476.107V395.182H311.556Z" fill="#4A9AE2"/>
<path d="M311.555 418.284H294.844V395.182H311.555V418.284Z" fill="#4788D6"/>
<path d="M191.302 398.946H384.134L387.563 377.996H191.302V398.946Z" fill="#5AA3E7"/>
<path d="M303.09 129.842H402.513C418.221 129.842 430.092 144.069 427.285 159.523L387.562 377.996H236.959L278.32 150.516C280.495 138.543 290.923 129.842 303.09 129.842Z" fill="#5AA3E7"/>
<path d="M289.568 129.842H388.991C404.698 129.842 416.572 144.069 413.763 159.523L374.038 377.996H223.437L264.798 150.516C266.973 138.543 277.401 129.842 289.568 129.842Z" fill="#6AACEC"/>
<path d="M302.325 341.475C302.317 342.018 302.294 342.575 302.273 343.14C301.82 352.688 298.715 364.319 288.301 373.278C286.36 374.96 284.15 376.542 281.664 377.995C279.335 379.358 276.879 380.605 274.333 381.741C257.357 389.337 236.36 392.117 221.409 393.104C210.077 393.856 202.226 393.57 202.226 393.57L163.211 456.93H163.204C149.144 451.581 135.988 445.364 123.742 438.433C141.224 407.765 163.805 368.178 171.431 354.902C174.566 349.447 181.188 345.033 189.462 341.475C215.691 330.187 258.443 327.507 258.443 327.507L268.84 327.017L288.301 326.096L300.344 325.531C300.344 325.531 300.509 326.059 300.743 327.017C300.929 327.77 301.158 328.795 301.384 330.038C301.903 332.885 302.4 336.886 302.325 341.475Z" fill="#202070"/>
<path d="M368.389 341.475C368.193 353.035 364.314 368.284 347.729 377.995C334.506 385.735 317.297 389.669 302.272 391.658C297.301 392.313 292.568 392.749 288.302 393.05C282.661 393.442 277.83 393.578 274.334 393.614C270.528 393.655 268.289 393.57 268.289 393.57L239.749 475.556C232.996 474.809 226.18 473.809 219.301 472.536C211.229 471.042 203.378 469.295 195.746 467.298C201.479 449.84 211.863 418.795 221.409 393.104C227.632 376.346 233.503 361.856 237.495 354.902C240.63 349.447 247.26 345.033 255.527 341.475C265.202 337.316 277.114 334.325 288.302 332.207C292.846 331.349 297.276 330.635 301.384 330.038C314.598 328.131 324.515 327.507 324.515 327.507L332.894 327.115L334.906 327.017L366.409 325.531L366.476 325.756C366.543 325.992 366.664 326.42 366.808 327.017C367.417 329.496 368.504 334.889 368.389 341.475Z" fill="#34318B"/>
<path d="M332.329 282.99C332.329 284.603 332.321 286.215 332.313 287.821C332.262 308.178 331.989 327.017 331.989 327.017L288.301 319.18C288.301 319.18 287.458 301.888 287.337 287.821C287.324 286.154 287.324 284.535 287.33 282.99C287.36 276.525 287.625 271.447 288.301 270.287C288.401 270.122 288.491 269.79 288.582 269.293C288.764 268.29 288.943 266.631 289.115 264.456C289.38 261.027 289.63 256.304 289.855 250.765C289.922 249.211 289.991 247.599 290.05 245.926C290.21 241.648 290.359 237.021 290.496 232.229C290.54 230.63 290.586 229.019 290.63 227.398C290.759 222.871 290.872 218.259 290.978 213.701C291.014 212.08 291.053 210.462 291.089 208.864C291.197 204.116 291.287 199.491 291.377 195.165C291.408 193.508 291.437 191.895 291.467 190.336C291.717 177.557 291.874 168.379 291.926 168.16C292.109 167.444 301.232 153.657 301.232 153.657L322.904 148.375L331.989 158.81C331.989 158.81 331.83 172.809 331.726 190.336C331.718 191.917 331.711 193.529 331.703 195.165C331.68 199.625 331.664 204.245 331.657 208.864C331.649 210.475 331.649 212.096 331.649 213.701C331.649 218.372 331.657 222.999 331.672 227.398C331.68 229.042 331.688 230.653 331.703 232.229C331.739 237.3 331.793 241.963 331.885 245.926C331.914 247.464 331.952 248.895 331.989 250.208C331.997 250.388 332.004 250.576 332.004 250.765C332.125 254.743 332.208 259.414 332.254 264.456C332.269 266.038 332.285 267.651 332.29 269.293C332.321 273.732 332.329 278.365 332.329 282.99Z" fill="white"/>
<path d="M331.725 190.336C331.717 191.918 331.709 193.531 331.702 195.165H291.376C291.407 193.508 291.437 191.895 291.466 190.336H331.725Z" fill="#EFEFF4"/>
<path d="M331.658 208.864C331.65 210.477 331.65 212.097 331.65 213.702H290.979C291.015 212.082 291.053 210.461 291.09 208.864H331.658Z" fill="#EFEFF4"/>
<path d="M331.702 232.228H290.495C290.541 230.631 290.586 229.018 290.63 227.397H331.672C331.679 229.043 331.687 230.654 331.702 232.228Z" fill="#EFEFF4"/>
<path d="M332.004 250.764H289.854C289.922 249.211 289.991 247.6 290.05 245.926H331.885C331.914 247.464 331.952 248.894 331.989 250.207C331.997 250.388 332.004 250.576 332.004 250.764Z" fill="#EFEFF4"/>
<path d="M332.291 269.293H288.581C288.763 268.291 288.943 266.632 289.116 264.455H332.253C332.268 266.039 332.284 267.651 332.291 269.293Z" fill="#EFEFF4"/>
<path d="M332.329 282.99C332.329 284.603 332.321 286.216 332.313 287.821H287.337C287.324 286.154 287.324 284.536 287.33 282.99H332.329Z" fill="#EFEFF4"/>
<path d="M226.188 270.591L187.812 279.97L193.719 301.505L252.535 298.704L266.403 248.484L252.805 231.442L234.765 228.676L226.188 270.591Z" fill="url(#paint0_linear)"/>
<path d="M320.145 271.953C321.666 301.691 324.627 323.347 326.044 325.261C329.164 329.474 374.645 327.323 376.075 322.314C377.507 317.305 370.348 269.902 371.064 248.481C371.108 247.238 371.146 245.942 371.191 244.6C371.865 222.9 372.496 190.178 372.496 190.178L357.599 171.921L349.936 160.462L326.028 150.077C318.561 188.941 318.314 236.267 320.145 271.953" fill="url(#paint1_linear)"/>
<path d="M338.455 240.614C336.579 261.675 326.881 269.234 320.146 271.953C321.666 301.691 324.627 323.347 326.044 325.261C329.164 329.474 374.645 327.323 376.075 322.314C377.507 317.305 370.348 269.902 371.064 248.481C371.108 247.238 371.146 245.942 371.191 244.6L355.934 236.463C362.113 210.95 355.934 190.005 355.934 190.005C355.934 190.005 341.385 207.704 338.455 240.614" fill="url(#paint2_linear)"/>
<path d="M241.79 200.206C237.134 215.606 232.123 237.805 232.666 238.882C233.002 239.553 246.237 243.168 256.023 245.77C261.269 247.156 265.518 248.256 266.278 248.452C266.361 248.473 266.399 248.481 266.399 248.481L270.085 234.225C270.085 234.225 268.553 282.893 264.659 295.618C260.771 308.354 253.612 322.675 252.896 324.461C252.183 326.256 291.927 325.261 291.927 325.261C291.927 325.261 291.603 183.373 300.177 153.656C255.044 164.402 246.446 184.806 241.79 200.206" fill="url(#paint3_linear)"/>
<path d="M340.722 265.782L338.455 275.405L275.901 280.775C275.901 280.775 258.85 272.586 251.195 272.855C243.538 273.12 230.649 292.464 232.93 294.745C235.161 296.974 245.439 287.904 245.89 287.51C245.519 288.017 238.882 297.097 240.585 299.439C242.334 301.859 255.76 292.189 255.76 292.189C255.76 292.189 264.487 296.621 273.753 297.427C283.021 298.234 341.287 306.582 354.314 306.311C367.341 306.048 382.027 248.481 382.027 248.481L346.659 240.614L340.722 265.782Z" fill="url(#paint4_linear)"/>
<path d="M322.899 148.374L357.033 187.584C357.033 187.584 346.678 238.468 346.655 240.614C346.636 242.765 373.99 246.793 382.031 248.484C397.523 202.712 395.949 179.796 374.196 163.951C353.156 148.625 324.834 148.374 322.993 148.374C322.932 148.374 322.899 148.374 322.899 148.374Z" fill="url(#paint5_linear)"/>
<path d="M338.455 275.405C338.455 275.405 351.722 274.575 351.904 273.467C351.993 272.907 346.342 269.261 340.722 265.782L338.455 275.405Z" fill="url(#paint6_linear)"/>
<path d="M264.892 219.277C264.487 229.501 260.197 238.919 256.023 245.77C261.269 247.156 265.518 248.256 266.278 248.452L270.085 234.225C270.798 202.09 272.142 187.315 272.142 187.315C272.142 187.315 265.698 198.866 264.892 219.277" fill="url(#paint7_linear)"/>
<path d="M265.963 60.551C260.236 67.7145 267.576 73.8029 267.576 73.8029C267.576 73.8029 258.98 66.9965 252.892 73.8029C246.807 80.6054 258.445 98.8685 270.26 98.1523L281.719 112.476C281.719 112.476 293.715 117.487 305.533 130.02C317.348 142.554 327.374 125.902 333.106 114.622C338.835 103.344 342.775 85.4381 329.703 85.4381C333.071 70.631 316.811 61.2691 299.087 63.9552C291.315 65.1322 285.09 63.2467 280.071 61.3613C276.132 59.881 272.931 58.4026 270.304 58.4026C268.644 58.4026 267.209 58.9939 265.963 60.551" fill="url(#paint8_linear)"/>
<path d="M291.927 141.752C293.623 144.54 294.504 147.199 295.076 149.603C295.957 153.302 296.101 156.392 297.301 158.404C299.266 161.71 304.012 166.721 313.591 165.026C323.166 163.325 326.299 152.58 326.028 150.077C325.886 148.729 323.446 142.89 321.298 136.635C319.453 131.247 317.815 125.543 318.066 122.147L291.927 141.752Z" fill="url(#paint9_linear)"/>
<path d="M291.927 141.752C293.623 144.54 294.504 147.199 295.076 149.603C305.625 152.344 315.804 149.858 321.298 136.635C319.452 131.247 317.815 125.543 318.066 122.147L291.927 141.752Z" fill="url(#paint10_linear)"/>
<path d="M268.651 92.108C268.112 96.6738 268.651 104.06 268.378 111.444C268.112 118.831 273.073 145.346 293.759 144.881C314.447 144.417 322.428 116.548 322.428 116.548C322.428 116.548 327.196 118.362 330.619 113.19C334.044 108.021 330.552 99.0911 325.45 100.366C320.347 101.643 321.891 112.049 319.61 111.245C317.327 110.438 314.036 92.108 314.036 92.108C314.036 92.108 301.414 97.3458 268.651 92.108" fill="url(#paint11_linear)"/>
<path d="M270.02 298.702H184.367C182.263 298.702 180.558 300.407 180.558 302.51C180.558 304.612 182.263 306.317 184.367 306.317H270.02C272.125 306.317 273.828 304.612 273.828 302.51C273.828 300.407 272.125 298.702 270.02 298.702Z" fill="#202070"/>
<path d="M191.398 210.143H75.3762C71.446 210.143 68.8328 213.331 69.5375 217.261L85.5253 306.316H215.78L199.792 217.261C199.088 213.331 195.328 210.143 191.398 210.143Z" fill="#202070"/>
<path d="M141.54 270.285L128.801 260.245L136.143 250.204L148.882 260.245L141.54 270.285Z" fill="#4848AA"/>
<path d="M228.199 302.511C228.199 303.065 227.749 303.515 227.195 303.515C226.64 303.515 226.188 303.065 226.188 302.511C226.188 301.956 226.64 301.506 227.195 301.506C227.749 301.506 228.199 301.956 228.199 302.511Z" fill="#4848AA"/>
<path d="M244.177 302.511C244.177 303.065 243.728 303.515 243.175 303.515C242.618 303.515 242.169 303.065 242.169 302.511C242.169 301.956 242.618 301.506 243.175 301.506C243.728 301.506 244.177 301.956 244.177 302.511Z" fill="#4848AA"/>
<path d="M247.804 302.511C247.804 302.891 247.495 303.2 247.113 303.2C246.731 303.2 246.421 302.891 246.421 302.511C246.421 302.128 246.731 301.819 247.113 301.819C247.495 301.819 247.804 302.128 247.804 302.511Z" fill="#4848AA"/>
<path d="M236.67 303.201H232.861C232.479 303.201 232.169 302.892 232.169 302.511C232.169 302.127 232.479 301.818 232.861 301.818H236.67C237.052 301.818 237.361 302.127 237.361 302.511C237.361 302.892 237.052 303.201 236.67 303.201Z" fill="#4848AA"/>
<path d="M416.912 319.181H169.355C165.805 319.181 162.925 316.301 162.925 312.749C162.925 309.197 165.805 306.317 169.355 306.317H416.912C420.464 306.317 423.344 309.197 423.344 312.749C423.344 316.301 420.464 319.181 416.912 319.181Z" fill="#89BEF5"/>
<path d="M298.384 319.181H50.8285C47.2765 319.181 44.3965 316.301 44.3965 312.749C44.3965 309.197 47.2765 306.317 50.8285 306.317H298.384C301.938 306.317 304.818 309.197 304.818 312.749C304.818 316.301 301.938 319.181 298.384 319.181Z" fill="#A9D0FF"/>
<path d="M288.302 319.179V476.635C283.684 476.952 279.028 477.145 274.334 477.215V341.474H74.8803V403.058C69.9747 398.56 65.3187 393.925 60.9104 389.186V319.179H288.302Z" fill="#89BEF5"/>
<path d="M288.302 327.016H60.9109V319.179H288.302V327.016Z" fill="#6AACEC"/>
<path d="M406.275 319.179V440.408C401.7 443.029 397.044 445.538 392.305 447.919V341.474H302.272V475.316C297.661 475.873 293.005 476.318 288.302 476.635V319.179H406.275Z" fill="#6AACEC"/>
<path d="M406.275 327.016H288.302V319.179H406.275V327.016Z" fill="#4788D6"/>
<path d="M86.025 341.475V412.709C82.1735 409.568 78.4602 406.35 74.8794 403.057V341.475H86.025Z" fill="#6AACEC"/>
<path d="M392.304 341.475V447.918C388.643 449.765 384.928 451.535 381.161 453.223V341.475H392.304Z" fill="#4788D6"/>
<path d="M491.214 368.396C477.938 384.484 462.793 399.606 446.012 413.169L454.821 282.991H485.435L491.214 368.396Z" fill="#8FC9EF"/>
<path d="M455.972 275.405L465.489 282.159C457.143 222.211 488.708 202.877 479.58 175.188C464.593 194.385 452.255 235.814 455.972 275.405" fill="url(#paint12_linear)"/>
<path d="M446.418 275.405L456.197 269.028C461.475 229.617 450.782 187.732 436.565 167.96C426.352 195.266 457.128 215.831 446.418 275.405" fill="url(#paint13_linear)"/>
<path d="M459.152 280.059L465.956 297.249C464.883 236.732 498.542 221.334 492.811 192.751C475.623 210.004 460.227 240.313 459.152 280.059" fill="url(#paint14_linear)"/>
<path d="M452.347 312.493L459.152 295.305C458.076 255.556 442.68 225.247 425.492 207.995C419.763 236.578 453.422 251.977 452.347 312.493Z" fill="url(#paint15_linear)"/>
<path d="M479.038 382.299C468.904 393.224 457.866 403.585 446.012 413.169C440.957 417.261 435.757 421.201 430.408 424.983L440.859 270.588H471.473L479.038 382.299Z" fill="#F0F8FF"/>
<path d="M109.575 192.751H10.9062C5.22296 192.751 0.616882 188.145 0.616882 182.462V105.051C0.616882 99.3698 5.22296 94.7618 10.9062 94.7618H109.575C115.258 94.7618 119.862 99.3698 119.862 105.051V182.462C119.862 188.145 115.258 192.751 109.575 192.751Z" fill="#4848AA"/>
<path d="M39.6566 132.167C37.08 132.167 34.9987 134.254 34.9987 136.825V171.024C34.9987 173.593 37.08 175.68 39.6566 175.68H80.8329C83.4018 175.68 85.4889 173.593 85.4889 171.024V136.825C85.4889 134.254 83.4018 132.167 80.8329 132.167H39.6566Z" fill="url(#paint16_linear)"/>
<path d="M40.0733 108.82L26.5815 131.349H43.4122L50.1591 108.82H40.0733Z" fill="url(#paint17_linear)"/>
<path d="M50.159 108.82L43.4121 131.349H60.2409V108.82H50.159Z" fill="url(#paint18_linear)"/>
<path d="M60.241 108.82V131.349H77.0717L70.3268 108.82H60.241Z" fill="url(#paint19_linear)"/>
<path d="M70.3267 108.82L77.0716 131.349H93.9005L80.4086 108.82H70.3267Z" fill="url(#paint20_linear)"/>
<path d="M26.5815 131.349V138.555C26.5815 143.18 30.3294 146.926 34.9527 146.926H35.0429C39.6644 146.926 43.4122 143.18 43.4122 138.555V131.349H26.5815Z" fill="url(#paint21_linear)"/>
<path d="M43.4121 131.349V138.555C43.4121 143.18 47.16 146.926 51.7814 146.926H51.8717C56.495 146.926 60.2409 143.18 60.2409 138.555V131.349H43.4121Z" fill="url(#paint22_linear)"/>
<path d="M60.241 131.349V138.555C60.241 143.18 63.9888 146.926 68.6122 146.926H68.7024C73.3258 146.926 77.0717 143.18 77.0717 138.555V131.349H60.241Z" fill="url(#paint23_linear)"/>
<path d="M77.0717 131.349V138.555C77.0717 143.18 80.8195 146.926 85.4428 146.926H85.533C90.1545 146.926 93.9004 143.18 93.9004 138.555V131.349H77.0717Z" fill="url(#paint24_linear)"/>
<path d="M67.5561 154.621V175.679H52.9238V154.621C52.9238 152.398 54.7248 150.597 56.9481 150.597H63.5318C65.7571 150.597 67.5561 152.398 67.5561 154.621Z" fill="#202070"/>
<path d="M137.189 54.912C134.445 54.912 132.222 57.1372 132.222 59.8809V124.337C132.222 127.081 134.445 129.306 137.189 129.306H223.936C226.68 129.306 228.907 127.081 228.907 124.337V59.8809C228.907 57.1372 226.68 54.912 223.936 54.912H137.189Z" fill="url(#paint25_linear)"/>
<path d="M154.912 67.3557H144.527C143.811 67.3557 143.229 66.774 143.229 66.0578C143.229 65.3416 143.811 64.7599 144.527 64.7599H154.912C155.629 64.7599 156.21 65.3416 156.21 66.0578C156.21 66.774 155.629 67.3557 154.912 67.3557Z" fill="white"/>
<g opacity="0.440002">
<g opacity="0.440002">
<path opacity="0.440002" d="M159.836 73.7119H144.526C143.81 73.7119 143.23 73.1302 143.23 72.414C143.23 71.6978 143.81 71.1161 144.526 71.1161H159.836C160.552 71.1161 161.134 71.6978 161.134 72.414C161.134 73.1302 160.552 73.7119 159.836 73.7119Z" fill="white"/>
</g>
</g>
<g opacity="0.149994">
<g opacity="0.149994">
<path opacity="0.149994" d="M143.229 103.643C153.703 103.643 152.987 110.507 161.133 110.507C169.28 110.507 167.669 97.2816 178.143 97.2816C188.618 97.2816 185.394 103.894 192.377 103.894C199.359 103.894 197.75 96.4445 205 96.4445C212.249 96.4445 209.026 105.987 218.964 105.987" stroke="black" stroke-width="1.23867" stroke-miterlimit="10" stroke-linecap="round" stroke-linejoin="round"/>
</g>
</g>
<path d="M143.229 99.4944C153.703 99.4944 152.987 110.506 161.133 110.506C169.28 110.506 167.669 89.2896 178.143 89.2896C188.618 89.2896 185.394 99.8976 192.377 99.8976C199.359 99.8976 197.75 87.9456 205 87.9456C212.249 87.9456 209.026 103.254 218.964 103.254" stroke="white" stroke-width="1.56933" stroke-miterlimit="10" stroke-linecap="round" stroke-linejoin="round"/>
<path d="M80.1167 44.9759C80.1167 63.0719 94.7836 77.7407 112.88 77.7407C130.976 77.7407 145.646 63.0719 145.646 44.9759C145.646 26.8799 130.976 12.2092 112.88 12.2092C94.7836 12.2092 80.1167 26.8799 80.1167 44.9759Z" fill="url(#paint26_linear)"/>
<path d="M90.5903 44.9759C90.5903 57.2869 100.571 67.2671 112.88 67.2671C125.193 67.2671 135.173 57.2869 135.173 44.9759C135.173 32.6629 125.193 22.6847 112.88 22.6847C100.571 22.6847 90.5903 32.6629 90.5903 44.9759Z" fill="url(#paint27_linear)"/>
<path d="M111.651 34.2316V36.6757C108.897 37.2191 107.302 38.9913 107.302 41.2569C107.302 43.7509 109.182 45.0354 111.933 45.9628C113.838 46.604 114.659 47.2242 114.659 48.2015C114.659 49.2306 113.657 49.797 112.19 49.797C110.518 49.797 109.001 49.2556 107.918 48.6642L107.146 51.6748C108.126 52.2392 109.796 52.7039 111.522 52.7807V55.2229H114.043V52.6002C117 52.0856 118.622 50.1292 118.622 47.8424C118.622 45.525 117.386 44.1119 114.325 43.029C112.138 42.2073 111.238 41.6658 111.238 40.8172C111.238 40.0972 111.778 39.3772 113.45 39.3772C115.303 39.3772 116.485 39.9704 117.155 40.2527L117.9 37.3439C117.054 36.933 115.894 36.574 114.17 36.4972V34.2316H111.651Z" fill="url(#paint28_linear)"/>
<path d="M360.5 4.0695V35.3962C360.5 37.1281 359.097 38.5335 357.365 38.5335H311.456L302.63 47.3578C301.725 48.2641 300.178 47.6228 300.178 46.3421V4.0695C300.178 2.33766 301.581 0.934143 303.313 0.934143H357.365C359.097 0.934143 360.5 2.33766 360.5 4.0695Z" fill="#BDE1FF"/>
<path d="M317.046 20.6699C317.046 22.0792 315.901 23.2216 314.494 23.2216C313.085 23.2216 311.942 22.0792 311.942 20.6699C311.942 19.2606 313.085 18.1182 314.494 18.1182C315.901 18.1182 317.046 19.2606 317.046 20.6699Z" fill="white"/>
<path d="M332.891 20.6699C332.891 22.0792 331.747 23.2216 330.34 23.2216C328.93 23.2216 327.788 22.0792 327.788 20.6699C327.788 19.2606 328.93 18.1182 330.34 18.1182C331.747 18.1182 332.891 19.2606 332.891 20.6699Z" fill="white"/>
<path d="M348.735 20.6699C348.735 22.0792 347.593 23.2216 346.185 23.2216C344.774 23.2216 343.634 22.0792 343.634 20.6699C343.634 19.2606 344.774 18.1182 346.185 18.1182C347.593 18.1182 348.735 19.2606 348.735 20.6699Z" fill="white"/>
<path d="M393.265 59.0344C388.716 59.0344 385.032 62.7208 385.032 67.2673V88.2145C385.032 92.7611 388.716 96.4456 393.265 96.4456H414.212C418.759 96.4456 422.443 92.7611 422.443 88.2145V67.2673C422.443 62.7208 418.759 59.0344 414.212 59.0344H393.265Z" fill="url(#paint29_linear)"/>
<path d="M396.217 77.4046L401.455 82.6423L411.259 72.8388" stroke="white" stroke-width="2.09333" stroke-miterlimit="10" stroke-linecap="round" stroke-linejoin="round"/>
<defs>
<linearGradient id="paint0_linear" x1="189.735" y1="159.993" x2="254.997" y2="346.11" gradientUnits="userSpaceOnUse">
<stop stop-color="#FFD5D3"/>
<stop offset="1" stop-color="#FE96A6"/>
</linearGradient>
<linearGradient id="paint1_linear" x1="354.161" y1="159.73" x2="342.882" y2="350.679" gradientUnits="userSpaceOnUse">
<stop stop-color="#52C4FF"/>
<stop offset="1" stop-color="#2C84FF"/>
</linearGradient>
<linearGradient id="paint2_linear" x1="250.914" y1="-39.9396" x2="348.403" y2="282.339" gradientUnits="userSpaceOnUse">
<stop stop-color="#52C4FF"/>
<stop offset="1" stop-color="#2C84FF"/>
</linearGradient>
<linearGradient id="paint3_linear" x1="269.785" y1="154.747" x2="258.505" y2="345.697" gradientUnits="userSpaceOnUse">
<stop stop-color="#52C4FF"/>
<stop offset="1" stop-color="#2C84FF"/>
</linearGradient>
<linearGradient id="paint4_linear" x1="337.728" y1="268.966" x2="568.158" y2="133.609" gradientUnits="userSpaceOnUse">
<stop stop-color="#FFD5D3"/>
<stop offset="1" stop-color="#FE96A6"/>
</linearGradient>
<linearGradient id="paint5_linear" x1="358.512" y1="159.987" x2="347.232" y2="350.937" gradientUnits="userSpaceOnUse">
<stop stop-color="#52C4FF"/>
<stop offset="1" stop-color="#2C84FF"/>
</linearGradient>
<linearGradient id="paint6_linear" x1="351.61" y1="235.847" x2="342.3" y2="291.708" gradientUnits="userSpaceOnUse">
<stop stop-color="#FFD5D3"/>
<stop offset="1" stop-color="#FE96A6"/>
</linearGradient>
<linearGradient id="paint7_linear" x1="225.781" y1="89.9267" x2="267.282" y2="227.121" gradientUnits="userSpaceOnUse">
<stop stop-color="#52C4FF"/>
<stop offset="1" stop-color="#2C84FF"/>
</linearGradient>
<linearGradient id="paint8_linear" x1="398.873" y1="425.711" x2="271.549" y2="10.9242" gradientUnits="userSpaceOnUse">
<stop stop-color="#002757"/>
<stop offset="1" stop-color="#061F3E"/>
</linearGradient>
<linearGradient id="paint9_linear" x1="334.566" y1="229.356" x2="267.605" y2="8.77928" gradientUnits="userSpaceOnUse">
<stop stop-color="#FFD5D3"/>
<stop offset="1" stop-color="#FE96A6"/>
</linearGradient>
<linearGradient id="paint10_linear" x1="334.523" y1="228.139" x2="299.788" y2="114.984" gradientUnits="userSpaceOnUse">
<stop stop-color="#FFD5D3"/>
<stop offset="1" stop-color="#FE96A6"/>
</linearGradient>
<linearGradient id="paint11_linear" x1="271.662" y1="134.522" x2="415.971" y2="-25.1847" gradientUnits="userSpaceOnUse">
<stop stop-color="#FFD5D3"/>
<stop offset="1" stop-color="#FE96A6"/>
</linearGradient>
<linearGradient id="paint12_linear" x1="492.492" y1="162.55" x2="472.081" y2="222.708" gradientUnits="userSpaceOnUse">
<stop stop-color="#56E281"/>
<stop offset="1" stop-color="#00966A"/>
</linearGradient>
<linearGradient id="paint13_linear" x1="431.285" y1="176.836" x2="443.102" y2="218.195" gradientUnits="userSpaceOnUse">
<stop stop-color="#56E281"/>
<stop offset="1" stop-color="#00966A"/>
</linearGradient>
<linearGradient id="paint14_linear" x1="477.383" y1="209.952" x2="472.818" y2="337.252" gradientUnits="userSpaceOnUse">
<stop stop-color="#56E281"/>
<stop offset="1" stop-color="#00966A"/>
</linearGradient>
<linearGradient id="paint15_linear" x1="443.642" y1="208.647" x2="439.077" y2="335.946" gradientUnits="userSpaceOnUse">
<stop stop-color="#56E281"/>
<stop offset="1" stop-color="#00966A"/>
</linearGradient>
<linearGradient id="paint16_linear" x1="37.2323" y1="74.8845" x2="61.9405" y2="159.751" gradientUnits="userSpaceOnUse">
<stop stop-color="#F4ABFF"/>
<stop offset="1" stop-color="#9552FF"/>
</linearGradient>
<linearGradient id="paint17_linear" x1="38.7501" y1="76.03" x2="38.3194" y2="125.989" gradientUnits="userSpaceOnUse">
<stop stop-color="#FFB1E2"/>
<stop offset="1" stop-color="#FF5C8E"/>
</linearGradient>
<linearGradient id="paint18_linear" x1="52.3031" y1="76.1454" x2="51.8728" y2="126.053" gradientUnits="userSpaceOnUse">
<stop stop-color="#52C4FF"/>
<stop offset="1" stop-color="#2C84FF"/>
</linearGradient>
<linearGradient id="paint19_linear" x1="69.0349" y1="76.2883" x2="68.6052" y2="126.145" gradientUnits="userSpaceOnUse">
<stop stop-color="#FFB1E2"/>
<stop offset="1" stop-color="#FF5C8E"/>
</linearGradient>
<linearGradient id="paint20_linear" x1="82.4909" y1="76.403" x2="82.0615" y2="126.208" gradientUnits="userSpaceOnUse">
<stop stop-color="#52C4FF"/>
<stop offset="1" stop-color="#2C84FF"/>
</linearGradient>
<linearGradient id="paint21_linear" x1="34.7698" y1="102.235" x2="35.4861" y2="205.365" gradientUnits="userSpaceOnUse">
<stop stop-color="#FFB1E2"/>
<stop offset="1" stop-color="#FF5C8E"/>
</linearGradient>
<linearGradient id="paint22_linear" x1="51.9628" y1="119.234" x2="51.5739" y2="164.351" gradientUnits="userSpaceOnUse">
<stop stop-color="#52C4FF"/>
<stop offset="1" stop-color="#2C84FF"/>
</linearGradient>
<linearGradient id="paint23_linear" x1="68.4284" y1="102.001" x2="69.1446" y2="205.131" gradientUnits="userSpaceOnUse">
<stop stop-color="#FFB1E2"/>
<stop offset="1" stop-color="#FF5C8E"/>
</linearGradient>
<linearGradient id="paint24_linear" x1="85.6231" y1="119.234" x2="85.2342" y2="164.351" gradientUnits="userSpaceOnUse">
<stop stop-color="#52C4FF"/>
<stop offset="1" stop-color="#2C84FF"/>
</linearGradient>
<linearGradient id="paint25_linear" x1="125.862" y1="-12.2556" x2="207.505" y2="143.512" gradientUnits="userSpaceOnUse">
<stop stop-color="#F4ABFF"/>
<stop offset="1" stop-color="#9552FF"/>
</linearGradient>
<linearGradient id="paint26_linear" x1="86.8934" y1="-11.4128" x2="172.297" y2="173.898" gradientUnits="userSpaceOnUse">
<stop stop-color="#FFF489"/>
<stop offset="1" stop-color="#FE7F20"/>
</linearGradient>
<linearGradient id="paint27_linear" x1="78.2288" y1="-50.4204" x2="123.885" y2="75.2687" gradientUnits="userSpaceOnUse">
<stop stop-color="#FFF489"/>
<stop offset="1" stop-color="#FE7F20"/>
</linearGradient>
<linearGradient id="paint28_linear" x1="108.69" y1="40.4816" x2="221.488" y2="159.009" gradientUnits="userSpaceOnUse">
<stop stop-color="#FFF489"/>
<stop offset="1" stop-color="#FE7F20"/>
</linearGradient>
<linearGradient id="paint29_linear" x1="383.156" y1="42.3651" x2="434.72" y2="130.992" gradientUnits="userSpaceOnUse">
<stop stop-color="#31E282"/>
<stop offset="1" stop-color="#006391"/>
</linearGradient>
</defs>
</svg>
